<?xml version="1.0" encoding="UTF-8"?>
<!DOCTYPE svg PUBLIC "-//W3C//DTD SVG 1.1//EN" "http://www.w3.org/Graphics/SVG/1.1/DTD/svg11.dtd">
<svg xmlns="http://www.w3.org/2000/svg" version="1.1" width="512px" height="512px" style="shape-rendering:geometricPrecision; text-rendering:geometricPrecision; image-rendering:optimizeQuality; fill-rule:evenodd; clip-rule:evenodd" xmlns:xlink="http://www.w3.org/1999/xlink">
<g><path style="opacity:0.97" fill="#010100" d="M 332.5,-0.5 C 341.833,-0.5 351.167,-0.5 360.5,-0.5C 397.36,6.51653 423.527,27.1832 439,61.5C 449.186,91.4555 447.353,120.622 433.5,149C 453.899,184.761 463.565,223.261 462.5,264.5C 488.524,269.524 504.857,284.857 511.5,310.5C 511.5,317.833 511.5,325.167 511.5,332.5C 509.426,340.196 506.259,347.53 502,354.5C 485.994,375.999 469.827,397.332 453.5,418.5C 443.808,405.975 434.308,393.308 425,380.5C 424.163,378.993 422.996,378.493 421.5,379C 412.251,391.252 401.918,402.586 390.5,413C 396.192,430.069 398.026,447.569 396,465.5C 394.664,471.501 391.164,475.668 385.5,478C 376.149,478.168 366.816,478.668 357.5,479.5C 348.378,496.628 334.378,507.295 315.5,511.5C 308.5,511.5 301.5,511.5 294.5,511.5C 275.622,507.295 261.622,496.628 252.5,479.5C 221.505,478.333 190.505,478.167 159.5,479C 150.569,496.436 136.569,507.27 117.5,511.5C 110.5,511.5 103.5,511.5 96.5,511.5C 77.6452,507.324 63.6452,496.658 54.5,479.5C 39.8447,478.667 25.178,478.167 10.5,478C 4.98447,476.316 1.31781,472.816 -0.5,467.5C -0.5,458.167 -0.5,448.833 -0.5,439.5C 2.63922,432.701 7.97256,429.035 15.5,428.5C 15.3333,372.166 15.5,315.832 16,259.5C 17.6891,254.475 20.8558,250.641 25.5,248C 33.5487,247.292 41.382,246.125 49,244.5C 50.8307,209.178 60.9974,176.511 79.5,146.5C 66.674,130.192 62.5074,111.858 67,91.5C 77.4816,61.5011 98.6483,47.3344 130.5,49C 145.372,50.6829 157.539,57.1829 167,68.5C 196.623,54.9076 227.79,48.0742 260.5,48C 277.325,21.094 301.325,4.92734 332.5,-0.5 Z M 237.5,66.5 C 242.167,66.5 246.833,66.5 251.5,66.5C 240.865,103.824 247.698,137.491 272,167.5C 296.667,198.833 321.333,230.167 346,261.5C 371.333,229.5 396.667,197.5 422,165.5C 438.744,196.383 446.244,229.383 444.5,264.5C 417.148,269.685 400.982,286.019 396,313.5C 394.134,332.235 399.301,348.735 411.5,363C 403.747,373.424 395.247,383.257 386,392.5C 379.024,366.597 372.357,340.597 366,314.5C 363.355,304.93 357.188,299.097 347.5,297C 319.835,296.5 292.169,296.333 264.5,296.5C 264.667,284.495 264.5,272.495 264,260.5C 262.167,253.333 257.667,248.833 250.5,247C 189.168,246.5 127.834,246.333 66.5,246.5C 67.9807,216.245 76.1474,187.911 91,161.5C 101,174.833 111,188.167 121,201.5C 121.837,203.007 123.004,203.507 124.5,203C 139.302,182.565 154.469,162.398 170,142.5C 182.245,124.482 184.745,105.149 177.5,84.5C 177.833,83.8333 178.167,83.1667 178.5,82.5C 197.486,74.1726 217.153,68.8393 237.5,66.5 Z"/></g>
<g><path style="opacity:1" fill="#fb806c" d="M 331.5,16.5 C 376.48,12.5575 407.647,31.2242 425,72.5C 431.523,96.4144 429.189,119.414 418,141.5C 394.74,172.596 370.907,203.262 346.5,233.5C 323.103,204.388 299.937,175.054 277,145.5C 254.317,103.768 260.15,66.6015 294.5,34C 305.751,25.7562 318.084,19.9228 331.5,16.5 Z"/></g>
<g><path style="opacity:1" fill="#050302" d="M 337.5,32.5 C 377.302,31.4648 402.135,50.1315 412,88.5C 414.481,122.063 400.648,145.897 370.5,160C 338.838,170.334 312.672,162.5 292,136.5C 273.4,104.008 277.233,74.5082 303.5,48C 313.719,40.2127 325.052,35.046 337.5,32.5 Z"/></g>
<g><path style="opacity:1" fill="#fde8a5" d="M 335.5,49.5 C 366.093,46.3648 385.926,59.3648 395,88.5C 398.25,118.18 385.75,137.68 357.5,147C 324.765,150.717 304.599,136.55 297,104.5C 296.053,76.36 308.886,58.0266 335.5,49.5 Z"/></g>
<g><path style="opacity:1" fill="#fb806c" d="M 115.5,65.5 C 140.262,64.1242 156.428,75.1242 164,98.5C 165.961,109.613 163.961,119.947 158,129.5C 146.973,144.899 135.473,159.899 123.5,174.5C 112.173,160.334 101.006,146.001 90,131.5C 80.4185,115.697 80.0852,99.6974 89,83.5C 95.9476,74.6179 104.781,68.6179 115.5,65.5 Z"/></g>
<g><path style="opacity:1" fill="#050202" d="M 117.5,82.5 C 139.188,81.6861 149.022,92.0194 147,113.5C 142.08,127.384 132.247,133.217 117.5,131C 103.562,126.058 97.3952,116.225 99,101.5C 102.052,91.9495 108.219,85.6161 117.5,82.5 Z"/></g>
<g><path style="opacity:1" fill="#f5e1a0" d="M 120.5,98.5 C 130.033,98.2409 133.199,102.574 130,111.5C 124.932,116.901 120.265,116.567 116,110.5C 114.309,105.131 115.809,101.131 120.5,98.5 Z"/></g>
<g><path style="opacity:0.892" fill="#000000" d="M 197.5,213.5 C 203.167,213.5 208.833,213.5 214.5,213.5C 214.5,219.5 214.5,225.5 214.5,231.5C 208.833,231.5 203.167,231.5 197.5,231.5C 197.5,225.5 197.5,219.5 197.5,213.5 Z"/></g>
<g><path style="opacity:0.892" fill="#000000" d="M 230.5,213.5 C 236.167,213.5 241.833,213.5 247.5,213.5C 247.5,219.5 247.5,225.5 247.5,231.5C 241.833,231.5 236.167,231.5 230.5,231.5C 230.5,225.5 230.5,219.5 230.5,213.5 Z"/></g>
<g><path style="opacity:0.892" fill="#000000" d="M 263.5,213.5 C 269.167,213.5 274.833,213.5 280.5,213.5C 280.5,219.5 280.5,225.5 280.5,231.5C 274.833,231.5 269.167,231.5 263.5,231.5C 263.5,225.5 263.5,219.5 263.5,213.5 Z"/></g>
<g><path style="opacity:1" fill="#d29f6b" d="M 179.5,325.5 C 179.56,326.043 179.893,326.376 180.5,326.5C 181.5,305.844 181.833,285.177 181.5,264.5C 203.167,264.5 224.833,264.5 246.5,264.5C 246.5,319.167 246.5,373.833 246.5,428.5C 217.167,428.5 187.833,428.5 158.5,428.5C 143.473,401.861 120.807,391.694 90.5,398C 74.9658,403.377 63.2991,413.21 55.5,427.5C 47.8622,428.497 40.1955,428.831 32.5,428.5C 32.5,373.5 32.5,318.5 32.5,263.5C 54.5,263.5 76.5,263.5 98.5,263.5C 98.3334,284.503 98.5,305.503 99,326.5C 112.305,319.431 125.805,312.764 139.5,306.5C 152.85,312.842 166.183,319.175 179.5,325.5 Z"/></g>
<g><path style="opacity:1" fill="#af7744" d="M 115.5,263.5 C 131.833,263.5 148.167,263.5 164.5,263.5C 164.832,275.518 164.499,287.518 163.5,299.5C 155.573,295.62 147.74,291.62 140,287.5C 132.26,291.62 124.427,295.62 116.5,299.5C 115.501,287.518 115.168,275.518 115.5,263.5 Z"/></g>
<g><path style="opacity:1" fill="#443423" d="M 181.5,263.5 C 181.5,263.833 181.5,264.167 181.5,264.5C 181.833,285.177 181.5,305.844 180.5,326.5C 179.893,326.376 179.56,326.043 179.5,325.5C 180.167,304.833 180.833,284.167 181.5,263.5 Z"/></g>
<g><path style="opacity:1" fill="#8b6947" d="M 181.5,264.5 C 181.5,264.167 181.5,263.833 181.5,263.5C 203.5,263.5 225.5,263.5 247.5,263.5C 247.5,318.833 247.5,374.167 247.5,429.5C 217.662,429.831 187.995,429.498 158.5,428.5C 187.833,428.5 217.167,428.5 246.5,428.5C 246.5,373.833 246.5,319.167 246.5,264.5C 224.833,264.5 203.167,264.5 181.5,264.5 Z"/></g>
<g><path style="opacity:1" fill="#fb7f6c" d="M 444.5,280.5 C 469.159,278.068 485.659,288.401 494,311.5C 495.649,321.962 494.315,331.962 490,341.5C 478.55,358.078 466.383,374.078 453.5,389.5C 441.506,373.999 429.672,358.332 418,342.5C 406.302,312.908 415.135,292.241 444.5,280.5 Z"/></g>
<g><path style="opacity:1" fill="#060302" d="M 448.5,296.5 C 469.027,296.192 478.86,306.192 478,326.5C 473.466,340.859 463.633,347.359 448.5,346C 430.923,339.344 425.423,327.177 432,309.5C 435.939,303.048 441.439,298.714 448.5,296.5 Z"/></g>
<g><path style="opacity:1" fill="#b99d52" d="M 264.5,313.5 C 264.168,346.338 264.502,379.004 265.5,411.5C 265.217,412.289 264.717,412.956 264,413.5C 263.169,379.997 263.336,346.664 264.5,313.5 Z"/></g>
<g><path style="opacity:1" fill="#fad56f" d="M 264.5,313.5 C 291.169,313.333 317.835,313.5 344.5,314C 349.558,317.003 351.891,321.503 351.5,327.5C 337.696,329.161 323.696,330.161 309.5,330.5C 303.246,332.253 299.079,336.253 297,342.5C 296.333,350.5 296.333,358.5 297,366.5C 299.106,372.272 302.939,376.438 308.5,379C 327.497,379.5 346.497,379.667 365.5,379.5C 369.167,395.5 372.833,411.5 376.5,427.5C 370.355,428.49 364.022,428.823 357.5,428.5C 337.346,396.79 310.012,388.623 275.5,404C 271.958,406.266 268.625,408.766 265.5,411.5C 264.502,379.004 264.168,346.338 264.5,313.5 Z"/></g>
<g><path style="opacity:1" fill="#f9e4a3" d="M 450.5,313.5 C 459.207,313.037 462.707,317.037 461,325.5C 458.045,329.277 454.212,330.443 449.5,329C 443.974,323.357 444.308,318.19 450.5,313.5 Z"/></g>
<g><path style="opacity:1" fill="#574b26" d="M 351.5,327.5 C 352.404,328.209 352.737,329.209 352.5,330.5C 338.167,330.5 323.833,330.5 309.5,330.5C 323.696,330.161 337.696,329.161 351.5,327.5 Z"/></g>
<g><path style="opacity:1" fill="#68d4f2" d="M 313.5,346.5 C 327.837,346.333 342.171,346.5 356.5,347C 358.221,352.05 359.554,357.217 360.5,362.5C 344.833,362.5 329.167,362.5 313.5,362.5C 313.5,357.167 313.5,351.833 313.5,346.5 Z"/></g>
<g><path style="opacity:1" fill="#939ca7" d="M 98.5,412.5 C 124.622,410.794 141.122,422.46 148,447.5C 149.128,471.424 138.295,486.924 115.5,494C 90.8026,497.082 74.6359,486.915 67,463.5C 63.3538,437.666 73.8538,420.666 98.5,412.5 Z"/></g>
<g><path style="opacity:1" fill="#939ca7" d="M 296.5,412.5 C 322.175,410.699 338.675,422.033 346,446.5C 346.293,480.54 329.46,496.373 295.5,494C 271.097,485.372 260.931,468.205 265,442.5C 270.52,427.144 281.02,417.144 296.5,412.5 Z"/></g>
<g><path style="opacity:1" fill="#61522b" d="M 376.5,427.5 C 377.043,427.56 377.376,427.893 377.5,428.5C 370.678,429.818 364.011,429.818 357.5,428.5C 364.022,428.823 370.355,428.49 376.5,427.5 Z"/></g>
<g><path style="opacity:1" fill="#020303" d="M 99.5,429.5 C 121.662,427.499 132.162,437.499 131,459.5C 126.074,473.416 116.241,479.582 101.5,478C 82.5632,470.113 77.7299,456.947 87,438.5C 90.651,434.609 94.8176,431.609 99.5,429.5 Z"/></g>
<g><path style="opacity:1" fill="#020203" d="M 297.5,429.5 C 323.221,428.642 333.055,440.642 327,465.5C 317.296,478.775 305.129,481.608 290.5,474C 278.022,461.569 277.356,448.569 288.5,435C 291.564,433.141 294.564,431.308 297.5,429.5 Z"/></g>
<g><path style="opacity:1" fill="#c1c6cd" d="M 15.5,445.5 C 26.8333,445.5 38.1667,445.5 49.5,445.5C 49.5,451.167 49.5,456.833 49.5,462.5C 38.495,462.667 27.495,462.5 16.5,462C 15.5268,456.593 15.1934,451.093 15.5,445.5 Z"/></g>
<g><path style="opacity:1" fill="#c4c9d1" d="M 103.5,445.5 C 114.313,445.777 117.313,450.61 112.5,460C 102.972,463.794 98.4721,460.627 99,450.5C 100.366,448.638 101.866,446.972 103.5,445.5 Z"/></g>
<g><path style="opacity:1" fill="#cbd0d8" d="M 247.5,461.5 C 219.833,461.5 192.167,461.5 164.5,461.5C 164.5,460.5 164.5,459.5 164.5,458.5C 164.5,454.167 164.5,449.833 164.5,445.5C 192.167,445.5 219.833,445.5 247.5,445.5C 247.5,450.833 247.5,456.167 247.5,461.5 Z"/></g>
<g><path style="opacity:1" fill="#c4c8d0" d="M 301.5,445.5 C 309.879,444.715 313.712,448.381 313,456.5C 310.459,461.069 306.625,462.569 301.5,461C 297.713,458.889 296.213,455.722 297,451.5C 298.332,449.34 299.832,447.34 301.5,445.5 Z"/></g>
<g><path style="opacity:1" fill="#c8cdd5" d="M 362.5,445.5 C 368.167,445.5 373.833,445.5 379.5,445.5C 379.5,450.833 379.5,456.167 379.5,461.5C 373.833,461.5 368.167,461.5 362.5,461.5C 362.5,456.167 362.5,450.833 362.5,445.5 Z"/></g>
<g><path style="opacity:1" fill="#5d6063" d="M 164.5,458.5 C 164.5,459.5 164.5,460.5 164.5,461.5C 192.167,461.5 219.833,461.5 247.5,461.5C 219.672,462.498 191.672,462.831 163.5,462.5C 163.232,460.901 163.566,459.568 164.5,458.5 Z"/></g>
</svg>
