<?xml version="1.0" standalone="no"?>
<!DOCTYPE svg PUBLIC "-//W3C//DTD SVG 20010904//EN"
 "http://www.w3.org/TR/2001/REC-SVG-20010904/DTD/svg10.dtd">
<svg version="1.0" xmlns="http://www.w3.org/2000/svg"
 width="512.000000pt" height="512.000000pt" viewBox="0 0 512.000000 512.000000"
 preserveAspectRatio="xMidYMid meet">

<g transform="translate(0.000000,512.000000) scale(0.100000,-0.100000)"
fill="#000000" stroke="none">
<path d="M2369 5109 c-285 -28 -602 -143 -850 -308 -412 -276 -688 -691 -796
-1196 -25 -120 -27 -147 -27 -360 0 -212 2 -240 27 -358 129 -603 495 -1074
1035 -1329 70 -33 133 -63 141 -67 7 -3 148 -333 313 -731 165 -399 307 -733
315 -742 20 -23 46 -23 66 0 9 9 151 343 315 742 165 399 306 728 314 732 7 3
72 34 143 68 632 298 1038 915 1062 1615 11 329 -51 624 -190 902 -353 703
-1085 1108 -1868 1032z m342 -210 c199 -20 339 -59 516 -144 161 -77 280 -162
413 -295 146 -145 244 -286 321 -461 34 -79 31 -112 -12 -134 -46 -24 -71 -7
-124 87 -214 375 -563 626 -987 710 -145 28 -378 30 -513 4 -394 -75 -729
-291 -942 -607 -28 -41 -60 -93 -72 -117 -12 -24 -31 -52 -41 -62 -41 -41
-113 -12 -113 45 1 38 93 222 165 328 84 124 267 305 388 386 310 207 654 296
1001 260z m65 -444 c111 -20 215 -54 329 -110 167 -81 213 -74 -539 -75 -581
0 -667 2 -656 14 18 23 186 102 275 131 44 14 114 32 155 40 104 18 327 18
436 0z m-606 -653 c0 -316 2 -371 16 -390 8 -12 23 -22 32 -22 9 0 90 27 180
60 l163 59 165 -60 c91 -32 170 -59 176 -59 6 0 20 7 30 17 17 15 18 40 18
390 l0 373 243 0 c203 0 246 -3 265 -16 l22 -15 0 -886 c0 -811 -1 -888 -17
-905 -15 -17 -56 -18 -901 -18 -1011 0 -922 -9 -922 91 l0 58 183 3 c138 2
188 6 200 17 15 12 17 43 17 257 0 240 0 243 -22 258 -18 13 -56 16 -200 16
l-178 0 0 548 c0 301 4 552 8 558 20 30 52 33 285 34 l237 0 0 -368z m670 43
l0 -324 -112 40 c-62 23 -125 45 -141 51 -25 9 -98 -12 -289 -87 -17 -7 -18
12 -18 319 l0 326 280 0 280 0 0 -325z m-1312 -931 l-3 -337 -47 89 c-101 195
-142 360 -142 579 0 219 41 384 142 579 l47 89 3 -331 c1 -182 1 -482 0 -668z
m2131 878 c84 -167 125 -345 125 -547 0 -199 -36 -358 -119 -530 -81 -167 -74
-213 -75 535 l0 665 20 -33 c11 -17 33 -58 49 -90z m-1729 -1022 l0 -150 -40
0 c-30 0 -47 7 -65 25 -24 23 -25 30 -25 150 l0 125 65 0 65 0 0 -150z m1275
-567 c-11 -8 -60 -35 -110 -58 -166 -80 -298 -113 -485 -121 -155 -7 -289 11
-438 61 -95 32 -241 101 -266 126 -6 5 248 9 655 9 608 -1 662 -2 644 -17z"/>
<path d="M3052 3014 c-26 -18 -29 -56 -6 -78 12 -13 41 -16 145 -16 72 0 139
5 150 10 27 15 25 64 -3 84 -17 12 -50 16 -143 16 -93 0 -126 -4 -143 -16z"/>
<path d="M3046 2794 c-23 -22 -20 -60 6 -78 17 -12 50 -16 143 -16 93 0 126 4
143 16 28 20 30 69 3 84 -11 5 -78 10 -150 10 -104 0 -133 -3 -145 -16z"/>
<path d="M3041 2576 c-20 -24 -9 -69 19 -83 16 -8 67 -13 135 -13 126 0 158
11 163 53 6 52 -7 57 -163 57 -112 0 -145 -3 -154 -14z"/>
</g>
</svg>
