<?xml version="1.0" encoding="UTF-8"?>
<!DOCTYPE svg PUBLIC "-//W3C//DTD SVG 1.1//EN" "http://www.w3.org/Graphics/SVG/1.1/DTD/svg11.dtd">
<svg xmlns="http://www.w3.org/2000/svg" version="1.1" width="512px" height="512px" style="shape-rendering:geometricPrecision; text-rendering:geometricPrecision; image-rendering:optimizeQuality; fill-rule:evenodd; clip-rule:evenodd" xmlns:xlink="http://www.w3.org/1999/xlink">
<g><path style="opacity:1" fill="#5c586f" d="M 422.5,41.5 C 394.26,44.0972 367.593,52.2639 342.5,66C 334.932,71.0841 327.265,75.9174 319.5,80.5C 313.733,78.7829 308.066,76.7829 302.5,74.5C 294.007,56.9857 293.507,39.3191 301,21.5C 311.035,8.78176 323.868,4.6151 339.5,9C 367.463,19.3709 395.13,30.2042 422.5,41.5 Z"/></g>
<g><path style="opacity:0.997" fill="#6a647e" d="M 422.5,41.5 C 472.229,56.5577 501.895,89.5577 511.5,140.5C 511.5,150.833 511.5,161.167 511.5,171.5C 509.619,183.154 506.286,194.487 501.5,205.5C 498.361,201.53 494.695,198.03 490.5,195C 486.137,192.316 481.471,190.483 476.5,189.5C 477.131,177.95 475.964,166.617 473,155.5C 467.349,142.515 457.849,133.681 444.5,129C 402.849,113.062 361.182,97.2283 319.5,81.5C 319.5,81.1667 319.5,80.8333 319.5,80.5C 327.265,75.9174 334.932,71.0841 342.5,66C 367.593,52.2639 394.26,44.0972 422.5,41.5 Z"/></g>
<g><path style="opacity:1" fill="#febd86" d="M 302.5,74.5 C 308.066,76.7829 313.733,78.7829 319.5,80.5C 319.5,80.8333 319.5,81.1667 319.5,81.5C 268.13,124.94 246.13,180.273 253.5,247.5C 241.144,228.087 234.811,206.754 234.5,183.5C 236.165,133.795 258.832,97.4617 302.5,74.5 Z"/></g>
<g><path style="opacity:0.999" fill="#fdd1a3" d="M 319.5,81.5 C 361.182,97.2283 402.849,113.062 444.5,129C 457.849,133.681 467.349,142.515 473,155.5C 475.964,166.617 477.131,177.95 476.5,189.5C 475.549,209.518 470.049,228.184 460,245.5C 456.231,250.719 452.731,256.053 449.5,261.5C 428.117,286.029 401.117,300.363 368.5,304.5C 360.833,304.5 353.167,304.5 345.5,304.5C 343.735,303.539 341.735,303.205 339.5,303.5C 333.254,283.365 319.587,274.865 298.5,278C 294.528,279.319 290.861,281.153 287.5,283.5C 278.855,276.853 270.521,269.853 262.5,262.5C 262.649,261.448 262.483,260.448 262,259.5C 259.302,255.975 256.469,252.642 253.5,249.5C 253.5,248.833 253.5,248.167 253.5,247.5C 246.13,180.273 268.13,124.94 319.5,81.5 Z"/></g>
<g><path style="opacity:1" fill="#454050" d="M 281.5,138.5 C 287.299,138.054 290.966,140.554 292.5,146C 290.533,151.566 288.366,157.066 286,162.5C 279.177,167.567 274.677,166.067 272.5,158C 273.7,150.521 276.7,144.021 281.5,138.5 Z"/></g>
<g><path style="opacity:1" fill="#433f4f" d="M 338.5,173.5 C 353.224,173.92 358.39,181.254 354,195.5C 349.436,203.913 342.603,206.413 333.5,203C 327.83,197.72 325.996,191.22 328,183.5C 330.738,179.26 334.238,175.926 338.5,173.5 Z"/></g>
<g><path style="opacity:1" fill="#e7a781" d="M 234.5,183.5 C 234.811,206.754 241.144,228.087 253.5,247.5C 253.5,248.167 253.5,248.833 253.5,249.5C 230.831,249.667 208.164,249.5 185.5,249C 178.432,246.885 172.932,242.718 169,236.5C 161.665,219.17 153.832,202.17 145.5,185.5C 137.399,202.271 129.565,219.271 122,236.5C 117.61,243.28 111.443,247.446 103.5,249C 75.9969,249.168 48.6636,249.668 21.5,250.5C 16.4012,250.825 11.4012,250.325 6.5,249C 3.25432,247.258 0.920984,244.758 -0.5,241.5C -0.5,238.167 -0.5,234.833 -0.5,231.5C 4.65296,219.23 10.4863,207.23 17,195.5C 22.5644,189.466 29.3978,185.633 37.5,184C 103.166,183.5 168.832,183.333 234.5,183.5 Z"/></g>
<g><path style="opacity:0.994" fill="#e3986d" d="M 145.5,185.5 C 145.5,237.167 145.5,288.833 145.5,340.5C 110.498,340.667 75.4984,340.5 40.5,340C 31.1819,338.014 25.0152,332.514 22,323.5C 21.5,299.169 21.3334,274.836 21.5,250.5C 48.6636,249.668 75.9969,249.168 103.5,249C 111.443,247.446 117.61,243.28 122,236.5C 129.565,219.271 137.399,202.271 145.5,185.5 Z"/></g>
<g><path style="opacity:1" fill="#dd8957" d="M 145.5,185.5 C 153.832,202.17 161.665,219.17 169,236.5C 172.932,242.718 178.432,246.885 185.5,249C 208.164,249.5 230.831,249.667 253.5,249.5C 256.469,252.642 259.302,255.975 262,259.5C 262.483,260.448 262.649,261.448 262.5,262.5C 256.207,266.958 250.707,272.292 246,278.5C 237.9,293.035 230.066,307.701 222.5,322.5C 206.904,321.631 194.904,327.631 186.5,340.5C 172.833,340.5 159.167,340.5 145.5,340.5C 145.5,288.833 145.5,237.167 145.5,185.5 Z"/></g>
<g><path style="opacity:1" fill="#454050" d="M 409.5,187.5 C 415.31,186.889 418.643,189.389 419.5,195C 418.106,200.628 416.272,206.128 414,211.5C 410.264,215.012 406.264,215.345 402,212.5C 401.015,210.634 400.515,208.634 400.5,206.5C 401.353,202.437 402.52,198.437 404,194.5C 404.967,191.379 406.8,189.046 409.5,187.5 Z"/></g>
<g><path style="opacity:0.985" fill="#febd86" d="M 476.5,189.5 C 481.471,190.483 486.137,192.316 490.5,195C 494.695,198.03 498.361,201.53 501.5,205.5C 512.649,227.733 508.316,246.233 488.5,261C 475.576,266.829 462.576,266.995 449.5,261.5C 452.731,256.053 456.231,250.719 460,245.5C 470.049,228.184 475.549,209.518 476.5,189.5 Z"/></g>
<g><path style="opacity:1" fill="#6aa2dd" d="M 262.5,262.5 C 270.521,269.853 278.855,276.853 287.5,283.5C 281.076,290.123 274.743,296.956 268.5,304C 259.567,310.82 249.901,315.986 239.5,319.5C 234.006,321.399 228.339,322.399 222.5,322.5C 230.066,307.701 237.9,293.035 246,278.5C 250.707,272.292 256.207,266.958 262.5,262.5 Z"/></g>
<g><path style="opacity:1" fill="#93bae6" d="M 345.5,304.5 C 343.833,304.5 342.167,304.5 340.5,304.5C 340.871,313.014 339.038,321.014 335,328.5C 314.365,355.951 287.532,374.618 254.5,384.5C 250.983,365.767 247.15,347.101 243,328.5C 242.465,325.031 241.298,322.031 239.5,319.5C 249.901,315.986 259.567,310.82 268.5,304C 274.743,296.956 281.076,290.123 287.5,283.5C 290.861,281.153 294.528,279.319 298.5,278C 319.587,274.865 333.254,283.365 339.5,303.5C 341.735,303.205 343.735,303.539 345.5,304.5 Z"/></g>
<g><path style="opacity:0.993" fill="#69a2dd" d="M 345.5,304.5 C 353.167,304.5 360.833,304.5 368.5,304.5C 370.539,317.464 369.372,330.131 365,342.5C 356.392,359.387 347.559,376.053 338.5,392.5C 306.511,390.945 274.511,389.612 242.5,388.5C 242.5,387.833 242.5,387.167 242.5,386.5C 246.476,385.705 250.476,385.038 254.5,384.5C 287.532,374.618 314.365,355.951 335,328.5C 339.038,321.014 340.871,313.014 340.5,304.5C 342.167,304.5 343.833,304.5 345.5,304.5 Z"/></g>
<g><path style="opacity:0.994" fill="#fdd1a3" d="M 239.5,319.5 C 241.298,322.031 242.465,325.031 243,328.5C 247.15,347.101 250.983,365.767 254.5,384.5C 250.476,385.038 246.476,385.705 242.5,386.5C 240.048,387.065 237.715,387.732 235.5,388.5C 226.798,389.527 218.131,389.527 209.5,388.5C 192.422,384.57 183.422,373.736 182.5,356C 183.014,350.587 184.347,345.42 186.5,340.5C 194.904,327.631 206.904,321.631 222.5,322.5C 228.339,322.399 234.006,321.399 239.5,319.5 Z"/></g>
<g><path style="opacity:1" fill="#aba9b4" d="M 242.5,386.5 C 242.5,387.167 242.5,387.833 242.5,388.5C 240.167,388.5 237.833,388.5 235.5,388.5C 237.715,387.732 240.048,387.065 242.5,386.5 Z"/></g>
<g><path style="opacity:0.995" fill="#e7a782" d="M 209.5,388.5 C 218.131,389.527 226.798,389.527 235.5,388.5C 237.833,388.5 240.167,388.5 242.5,388.5C 274.511,389.612 306.511,390.945 338.5,392.5C 338.5,392.833 338.5,393.167 338.5,393.5C 324.412,416.551 303.745,428.217 276.5,428.5C 276.5,439.5 276.5,450.5 276.5,461.5C 254.167,461.5 231.833,461.5 209.5,461.5C 209.5,437.167 209.5,412.833 209.5,388.5 Z"/></g>
<g><path style="opacity:0.99" fill="#de8957" d="M 338.5,393.5 C 338.5,416.167 338.5,438.833 338.5,461.5C 317.833,461.5 297.167,461.5 276.5,461.5C 276.5,450.5 276.5,439.5 276.5,428.5C 303.745,428.217 324.412,416.551 338.5,393.5 Z"/></g>
<g><path style="opacity:0.992" fill="#6b647e" d="M 209.5,461.5 C 231.833,461.5 254.167,461.5 276.5,461.5C 297.167,461.5 317.833,461.5 338.5,461.5C 338.5,461.833 338.5,462.167 338.5,462.5C 317.833,462.5 297.167,462.5 276.5,462.5C 276.666,470.174 276.5,477.841 276,485.5C 274.618,493.708 270.118,499.375 262.5,502.5C 242.24,503.654 221.906,503.82 201.5,503C 188.882,497.931 184.049,488.764 187,475.5C 191.293,465.712 198.793,461.045 209.5,461.5 Z"/></g>
<g><path style="opacity:0.988" fill="#5b586e" d="M 338.5,462.5 C 338.666,471.173 338.5,479.84 338,488.5C 335.833,496 331,500.833 323.5,503C 303.094,503.82 282.76,503.654 262.5,502.5C 270.118,499.375 274.618,493.708 276,485.5C 276.5,477.841 276.666,470.174 276.5,462.5C 297.167,462.5 317.833,462.5 338.5,462.5 Z"/></g>
</svg>
