<?xml version="1.0" encoding="UTF-8"?>
<!DOCTYPE svg PUBLIC "-//W3C//DTD SVG 1.1//EN" "http://www.w3.org/Graphics/SVG/1.1/DTD/svg11.dtd">
<svg xmlns="http://www.w3.org/2000/svg" version="1.1" width="512px" height="512px" style="shape-rendering:geometricPrecision; text-rendering:geometricPrecision; image-rendering:optimizeQuality; fill-rule:evenodd; clip-rule:evenodd" xmlns:xlink="http://www.w3.org/1999/xlink">
<g><path style="opacity:0.982" fill="#010101" d="M 108.5,-0.5 C 118.167,-0.5 127.833,-0.5 137.5,-0.5C 177.399,7.8958 202.566,31.8958 213,71.5C 217.142,94.5066 213.476,116.173 202,136.5C 192.203,151.262 182.036,165.762 171.5,180C 191.497,180.5 211.497,180.667 231.5,180.5C 231.5,235.5 231.5,290.5 231.5,345.5C 236.5,345.5 241.5,345.5 246.5,345.5C 246.052,317.463 246.552,289.463 248,261.5C 252.52,246.812 262.02,236.812 276.5,231.5C 253.99,225.818 244.49,211.484 248,188.5C 249.639,183.888 251.806,179.554 254.5,175.5C 242.222,149.948 244.722,125.948 262,103.5C 271.621,92.8885 283.454,86.0552 297.5,83C 305.666,63.8302 320,52.4969 340.5,49C 363.866,48.0746 387.199,48.4079 410.5,50C 440.048,56.5445 460.881,73.7112 473,101.5C 481.255,125.8 480.088,149.634 469.5,173C 479.671,186.2 481.171,200.367 474,215.5C 467.104,225.367 457.604,230.701 445.5,231.5C 445.5,232.5 445.5,233.5 445.5,234.5C 473.583,242.808 493.416,260.475 505,287.5C 507.719,294.81 509.886,302.143 511.5,309.5C 511.5,360.5 511.5,411.5 511.5,462.5C 489.497,462.333 467.497,462.5 445.5,463C 439.42,488.579 423.753,504.746 398.5,511.5C 391.167,511.5 383.833,511.5 376.5,511.5C 350.876,504.874 335.542,488.541 330.5,462.5C 280.5,462.5 230.5,462.5 180.5,462.5C 175.458,488.541 160.124,504.874 134.5,511.5C 127.167,511.5 119.833,511.5 112.5,511.5C 87.2432,504.742 71.5766,488.575 65.5,463C 48.7804,462.941 32.1138,462.275 15.5,461C 7.89337,457.562 2.56003,452.062 -0.5,444.5C -0.5,417.5 -0.5,390.5 -0.5,363.5C 2.44472,356.055 7.61138,350.721 15,347.5C 15.5,291.834 15.6667,236.168 15.5,180.5C 35.178,180.833 54.8446,180.5 74.5,179.5C 65.1949,165.695 55.6949,152.029 46,138.5C 33.3743,117.416 29.3743,94.7491 34,70.5C 44.3665,31.5806 69.1998,7.91393 108.5,-0.5 Z"/></g>
<g><path style="opacity:1" fill="#b1da7d" d="M 108.5,16.5 C 146.638,12.147 174.471,26.8137 192,60.5C 200.289,83.102 198.956,105.102 188,126.5C 167.956,155.421 147.79,184.254 127.5,213C 122.788,214.443 118.955,213.277 116,209.5C 97.58,182.326 78.9134,155.326 60,128.5C 40.48,89.7621 47.3133,56.5955 80.5,29C 89.313,23.4219 98.6464,19.2553 108.5,16.5 Z"/></g>
<g><path style="opacity:1" fill="#040503" d="M 114.5,32.5 C 150.737,31.3496 172.904,48.3496 181,83.5C 182.34,108.529 172.506,127.695 151.5,141C 120.107,154.978 94.274,148.144 74,120.5C 58.528,89.5217 64.3613,63.355 91.5,42C 98.7358,37.5394 106.402,34.3727 114.5,32.5 Z"/></g>
<g><path style="opacity:1" fill="#fde8a5" d="M 113.5,49.5 C 139.026,46.6696 155.86,57.3362 164,81.5C 166.543,106.939 155.71,123.439 131.5,131C 106.693,133.686 90.5266,123.186 83,99.5C 80.1831,74.7844 90.3498,58.1177 113.5,49.5 Z"/></g>
<g><path style="opacity:1" fill="#636b76" d="M 340.5,65.5 C 363.202,65.077 385.868,65.577 408.5,67C 446.026,78.199 463.526,103.366 461,142.5C 459.961,150.488 457.461,157.988 453.5,165C 450.808,165.43 448.141,165.263 445.5,164.5C 445.827,159.786 445.493,155.12 444.5,150.5C 430.074,145.902 417.907,137.902 408,126.5C 404.973,121.822 401.64,117.489 398,113.5C 381.438,121.531 364.938,129.697 348.5,138C 333.954,145.074 318.62,148.407 302.5,148C 295.462,143.814 294.795,138.814 300.5,133C 304.7,131.633 309.033,131.133 313.5,131.5C 313.5,126.167 313.5,120.833 313.5,115.5C 297.657,112.832 286.823,118.832 281,133.5C 280.5,143.828 280.334,154.161 280.5,164.5C 276.85,164.358 273.35,165.025 270,166.5C 265.455,160.155 263.288,152.988 263.5,145C 264.715,127.896 272.382,114.563 286.5,105C 291.534,102.211 296.868,100.211 302.5,99C 319.83,98.5001 337.163,98.3334 354.5,98.5C 354.5,93.1667 354.5,87.8333 354.5,82.5C 342.162,82.6665 329.829,82.4999 317.5,82C 323.393,73.9276 331.06,68.4276 340.5,65.5 Z"/></g>
<g><path style="opacity:1" fill="#edcdb1" d="M 390.5,134.5 C 391.552,134.351 392.552,134.517 393.5,135C 402.638,146.636 413.971,155.469 427.5,161.5C 428.666,184.493 428.833,207.493 428,230.5C 422.733,258.767 405.9,275.267 377.5,280C 355.486,284.2 335.486,279.866 317.5,267C 306.105,257.046 299.271,244.546 297,229.5C 296.167,207.492 296.334,185.492 297.5,163.5C 318.472,165.14 338.472,161.306 357.5,152C 368.562,146.138 379.562,140.304 390.5,134.5 Z"/></g>
<g><path style="opacity:1" fill="#040403" d="M 322.5,173.5 C 337.983,171.149 348.483,177.149 354,191.5C 354.495,193.473 354.662,195.473 354.5,197.5C 348.833,197.5 343.167,197.5 337.5,197.5C 335.984,190.075 331.651,187.908 324.5,191C 322.781,192.87 321.781,195.037 321.5,197.5C 316.167,197.5 310.833,197.5 305.5,197.5C 305.764,185.627 311.431,177.627 322.5,173.5 Z"/></g>
<g><path style="opacity:1" fill="#040303" d="M 388.5,173.5 C 402.433,171.217 412.6,176.217 419,188.5C 420.149,191.393 420.649,194.393 420.5,197.5C 415.125,197.828 409.792,197.495 404.5,196.5C 401.544,189.678 396.877,188.011 390.5,191.5C 388.585,193.071 387.585,195.071 387.5,197.5C 382.167,197.5 376.833,197.5 371.5,197.5C 371.778,185.59 377.444,177.59 388.5,173.5 Z"/></g>
<g><path style="opacity:1" fill="#ebcbb0" d="M 279.5,181.5 C 279.5,192.167 279.5,202.833 279.5,213.5C 278.5,213.5 277.5,213.5 276.5,213.5C 268.317,211.139 263.984,205.639 263.5,197C 264.785,187.547 270.119,182.38 279.5,181.5 Z"/></g>
<g><path style="opacity:1" fill="#b39b86" d="M 279.5,181.5 C 280.495,192.321 280.828,203.321 280.5,214.5C 278.901,214.768 277.568,214.434 276.5,213.5C 277.5,213.5 278.5,213.5 279.5,213.5C 279.5,202.833 279.5,192.167 279.5,181.5 Z"/></g>
<g><path style="opacity:1" fill="#ecccb1" d="M 445.5,181.5 C 455.636,181.804 460.969,186.97 461.5,197C 461.245,207.424 455.911,213.257 445.5,214.5C 445.5,203.5 445.5,192.5 445.5,181.5 Z"/></g>
<g><path style="opacity:1" fill="#d19f6b" d="M 181.5,198.5 C 192.167,198.5 202.833,198.5 213.5,198.5C 213.5,247.833 213.5,297.167 213.5,346.5C 153.167,346.5 92.8333,346.5 32.5,346.5C 32.5,296.833 32.5,247.167 32.5,197.5C 43.5,197.5 54.5,197.5 65.5,197.5C 65.5,219.5 65.5,241.5 65.5,263.5C 104.167,263.5 142.833,263.5 181.5,263.5C 181.5,241.833 181.5,220.167 181.5,198.5 Z"/></g>
<g><path style="opacity:1" fill="#b07845" d="M 82.5,197.5 C 84.604,197.201 86.604,197.534 88.5,198.5C 94.4655,207.598 100.799,216.431 107.5,225C 121.249,233.762 133.416,231.929 144,219.5C 148.419,212.328 153.085,205.328 158,198.5C 160.041,197.577 162.208,197.244 164.5,197.5C 164.5,213.833 164.5,230.167 164.5,246.5C 137.167,246.5 109.833,246.5 82.5,246.5C 82.5,230.167 82.5,213.833 82.5,197.5 Z"/></g>
<g><path style="opacity:1" fill="#98734e" d="M 181.5,198.5 C 192.321,197.505 203.321,197.172 214.5,197.5C 214.832,247.336 214.499,297.003 213.5,346.5C 213.5,297.167 213.5,247.833 213.5,198.5C 202.833,198.5 192.167,198.5 181.5,198.5 Z"/></g>
<g><path style="opacity:1" fill="#060504" d="M 329.5,230.5 C 335.167,230.5 340.833,230.5 346.5,230.5C 347.039,240.705 352.373,246.372 362.5,247.5C 372.503,246.164 378.17,240.497 379.5,230.5C 384.833,230.5 390.167,230.5 395.5,230.5C 392.949,254.306 379.616,265.14 355.5,263C 339.351,258.223 330.684,247.39 329.5,230.5 Z"/></g>
<g><path style="opacity:1" fill="#724e2c" d="M 82.5,197.5 C 82.5,213.833 82.5,230.167 82.5,246.5C 109.833,246.5 137.167,246.5 164.5,246.5C 137.005,247.498 109.338,247.831 81.5,247.5C 81.1702,230.658 81.5035,213.992 82.5,197.5 Z"/></g>
<g><path style="opacity:1" fill="#f8d36e" d="M 454.5,425.5 C 454.5,426.833 454.5,428.167 454.5,429.5C 467.833,429.5 481.167,429.5 494.5,429.5C 494.5,434.833 494.5,440.167 494.5,445.5C 477.833,445.5 461.167,445.5 444.5,445.5C 438.06,414.226 418.893,397.893 387,396.5C 355.654,398.343 336.821,414.676 330.5,445.5C 308.167,445.5 285.833,445.5 263.5,445.5C 263.333,385.832 263.5,326.166 264,266.5C 267.107,256.392 273.774,250.059 284,247.5C 286.564,252.96 289.397,258.294 292.5,263.5C 286.369,265.798 282.535,270.131 281,276.5C 280.5,305.165 280.333,333.831 280.5,362.5C 346.5,362.5 412.5,362.5 478.5,362.5C 478.667,347.83 478.5,333.163 478,318.5C 472.259,292.26 456.759,274.593 431.5,265.5C 434.752,260.666 437.752,255.666 440.5,250.5C 468.953,260.457 486.787,280.124 494,309.5C 495.414,332.802 495.914,356.135 495.5,379.5C 478.154,379.167 460.821,379.5 443.5,380.5C 447.64,395.394 451.307,410.394 454.5,425.5 Z"/></g>
<g><path style="opacity:1" fill="#4c9bb0" d="M 297.5,280.5 C 297.5,302.167 297.5,323.833 297.5,345.5C 302.833,345.5 308.167,345.5 313.5,345.5C 313.5,344.5 313.5,343.5 313.5,342.5C 314.434,343.568 314.768,344.901 314.5,346.5C 308.5,346.5 302.5,346.5 296.5,346.5C 296.169,324.327 296.503,302.327 297.5,280.5 Z"/></g>
<g><path style="opacity:1" fill="#68d4f2" d="M 297.5,280.5 C 301.182,280.335 304.848,280.501 308.5,281C 313.377,283.932 318.043,287.099 322.5,290.5C 318.64,294.882 315.807,299.882 314,305.5C 313.5,317.829 313.333,330.162 313.5,342.5C 313.5,343.5 313.5,344.5 313.5,345.5C 308.167,345.5 302.833,345.5 297.5,345.5C 297.5,323.833 297.5,302.167 297.5,280.5 Z"/></g>
<g><path style="opacity:1" fill="#67d1ef" d="M 452.5,300.5 C 449.864,297.349 446.531,296.182 442.5,297C 437.351,301.315 432.351,305.815 427.5,310.5C 413.427,302.631 400.593,304.298 389,315.5C 386.032,313.922 382.865,313.255 379.5,313.5C 379.752,307.423 378.085,301.923 374.5,297C 390.04,295.599 404.04,290.266 416.5,281C 431.848,281.504 443.848,288.004 452.5,300.5 Z"/></g>
<g><path style="opacity:1" fill="#fb806c" d="M 362.5,310.5 C 362.5,317.167 362.5,323.833 362.5,330.5C 368.833,330.5 375.167,330.5 381.5,330.5C 383.716,331.203 385.549,332.536 387,334.5C 387.499,338.486 387.666,342.486 387.5,346.5C 368.821,346.833 350.155,346.5 331.5,345.5C 331,344.5 330.5,343.5 330,342.5C 329.333,331.5 329.333,320.5 330,309.5C 337.402,294.727 347.402,292.727 360,303.5C 361.411,305.65 362.245,307.984 362.5,310.5 Z"/></g>
<g><path style="opacity:1" fill="#66cfed" d="M 452.5,300.5 C 457.973,307.126 460.973,314.792 461.5,323.5C 461.818,328.032 461.485,332.366 460.5,336.5C 454.356,331.197 448.022,326.031 441.5,321C 445.702,317.133 449.535,312.967 453,308.5C 453.602,305.779 453.435,303.113 452.5,300.5 Z"/></g>
<g><path style="opacity:1" fill="#000000" d="M 49.5,313.5 C 54.8333,313.5 60.1667,313.5 65.5,313.5C 65.5,318.833 65.5,324.167 65.5,329.5C 60.1667,329.5 54.8333,329.5 49.5,329.5C 49.5,324.167 49.5,318.833 49.5,313.5 Z"/></g>
<g><path style="opacity:1" fill="#000000" d="M 82.5,313.5 C 87.8333,313.5 93.1667,313.5 98.5,313.5C 98.5,318.833 98.5,324.167 98.5,329.5C 93.1667,329.5 87.8333,329.5 82.5,329.5C 82.5,324.167 82.5,318.833 82.5,313.5 Z"/></g>
<g><path style="opacity:1" fill="#ebccb0" d="M 408.5,321.5 C 412.803,320.796 416.303,322.13 419,325.5C 424.45,339.981 419.617,346.981 404.5,346.5C 405.172,339.861 404.172,333.528 401.5,327.5C 403.878,325.448 406.211,323.448 408.5,321.5 Z"/></g>
<g><path style="opacity:1" fill="#2a5662" d="M 461.5,323.5 C 462.812,328.015 462.812,332.682 461.5,337.5C 460.893,337.376 460.56,337.043 460.5,336.5C 461.485,332.366 461.818,328.032 461.5,323.5 Z"/></g>
<g><path style="opacity:1" fill="#8c473c" d="M 362.5,310.5 C 363.49,316.645 363.823,322.978 363.5,329.5C 369.69,329.177 375.69,329.51 381.5,330.5C 375.167,330.5 368.833,330.5 362.5,330.5C 362.5,323.833 362.5,317.167 362.5,310.5 Z"/></g>
<g><path style="opacity:1" fill="#5fc2dd" d="M 436.5,339.5 C 440.202,341.024 443.536,343.19 446.5,346C 442.848,346.499 439.182,346.665 435.5,346.5C 435.993,344.194 436.326,341.861 436.5,339.5 Z"/></g>
<g><path style="opacity:1" fill="#ab914c" d="M 21.5,363.5 C 96.6648,362.501 171.998,362.167 247.5,362.5C 247.831,390.338 247.498,418.005 246.5,445.5C 246.5,418.167 246.5,390.833 246.5,363.5C 171.5,363.5 96.5,363.5 21.5,363.5 Z"/></g>
<g><path style="opacity:1" fill="#fad56f" d="M 21.5,363.5 C 96.5,363.5 171.5,363.5 246.5,363.5C 246.5,390.833 246.5,418.167 246.5,445.5C 224.5,445.5 202.5,445.5 180.5,445.5C 173.939,414.311 154.772,397.978 123,396.5C 91.6386,398.36 72.8053,414.693 66.5,445.5C 51.4963,445.667 36.4963,445.5 21.5,445C 18.921,443.924 17.2543,442.091 16.5,439.5C 16.5,436.167 16.5,432.833 16.5,429.5C 29.8333,429.5 43.1667,429.5 56.5,429.5C 56.5,428.167 56.5,426.833 56.5,425.5C 59.693,410.394 63.3597,395.394 67.5,380.5C 50.1795,379.5 32.8461,379.167 15.5,379.5C 14.9589,374.551 15.7922,369.884 18,365.5C 18.8159,364.177 19.9826,363.511 21.5,363.5 Z"/></g>
<g><path style="opacity:1" fill="#90493e" d="M 46.5,396.5 C 36.5,396.5 26.5,396.5 16.5,396.5C 16.5,401.833 16.5,407.167 16.5,412.5C 15.5111,407.025 15.1778,401.358 15.5,395.5C 26.0135,395.172 36.3468,395.506 46.5,396.5 Z"/></g>
<g><path style="opacity:1" fill="#90493e" d="M 464.5,396.5 C 474.653,395.506 484.986,395.172 495.5,395.5C 495.822,401.358 495.489,407.025 494.5,412.5C 494.5,407.167 494.5,401.833 494.5,396.5C 484.5,396.5 474.5,396.5 464.5,396.5 Z"/></g>
<g><path style="opacity:1" fill="#fb806c" d="M 46.5,396.5 C 45.5544,401.783 44.2211,406.95 42.5,412C 33.8397,412.5 25.1731,412.666 16.5,412.5C 16.5,407.167 16.5,401.833 16.5,396.5C 26.5,396.5 36.5,396.5 46.5,396.5 Z"/></g>
<g><path style="opacity:1" fill="#fb806c" d="M 464.5,396.5 C 474.5,396.5 484.5,396.5 494.5,396.5C 494.5,401.833 494.5,407.167 494.5,412.5C 485.827,412.666 477.16,412.5 468.5,412C 466.779,406.95 465.446,401.783 464.5,396.5 Z"/></g>
<g><path style="opacity:1" fill="#939ca7" d="M 114.5,412.5 C 139.916,410.439 156.416,421.439 164,445.5C 166.655,470.383 156.155,486.55 132.5,494C 107.331,497.005 90.8314,486.505 83,462.5C 80.122,437.231 90.622,420.565 114.5,412.5 Z"/></g>
<g><path style="opacity:1" fill="#939ca7" d="M 379.5,412.5 C 413.51,412.008 429.676,428.675 428,462.5C 420.219,487.249 403.386,497.749 377.5,494C 354.285,485.765 344.118,469.265 347,444.5C 352.319,428.115 363.153,417.449 379.5,412.5 Z"/></g>
<g><path style="opacity:1" fill="#927d41" d="M 56.5,425.5 C 56.5,426.833 56.5,428.167 56.5,429.5C 43.1667,429.5 29.8333,429.5 16.5,429.5C 16.5,432.833 16.5,436.167 16.5,439.5C 15.5184,436.038 15.185,432.371 15.5,428.5C 28.8333,428.5 42.1667,428.5 55.5,428.5C 55.2627,427.209 55.596,426.209 56.5,425.5 Z"/></g>
<g><path style="opacity:1" fill="#927c40" d="M 454.5,425.5 C 455.404,426.209 455.737,427.209 455.5,428.5C 468.833,428.5 482.167,428.5 495.5,428.5C 495.822,434.358 495.489,440.025 494.5,445.5C 494.5,440.167 494.5,434.833 494.5,429.5C 481.167,429.5 467.833,429.5 454.5,429.5C 454.5,428.167 454.5,426.833 454.5,425.5 Z"/></g>
<g><path style="opacity:1" fill="#030304" d="M 115.5,429.5 C 133.691,427.08 144.691,434.747 148.5,452.5C 145.665,472.505 134.332,480.672 114.5,477C 101.199,470.441 96.3658,459.941 100,445.5C 103.355,438.313 108.522,432.979 115.5,429.5 Z"/></g>
<g><path style="opacity:1" fill="#030304" d="M 379.5,429.5 C 398.442,426.794 409.442,434.794 412.5,453.5C 410.161,471.679 399.828,479.846 381.5,478C 366.614,472.062 360.781,461.229 364,445.5C 367.355,438.313 372.522,432.979 379.5,429.5 Z"/></g>
<g><path style="opacity:1" fill="#c7ccd3" d="M 120.5,445.5 C 128.658,444.823 132.158,448.49 131,456.5C 128.565,461.224 124.731,462.724 119.5,461C 113.939,455.353 114.272,450.186 120.5,445.5 Z"/></g>
<g><path style="opacity:1" fill="#c7ccd4" d="M 384.5,445.5 C 393.207,445.037 396.707,449.037 395,457.5C 392.045,461.277 388.212,462.443 383.5,461C 377.974,455.357 378.308,450.19 384.5,445.5 Z"/></g>
</svg>
