<?xml version="1.0" standalone="yes"?>
<svg xmlns="http://www.w3.org/2000/svg" width="512" height="512">
<path style="fill:#27262f; stroke:none;" d="M0 0L0 512L65 512C70.4675 512 83.991 514.462 88.3966 510.972C91.6946 508.36 89.8338 499.734 90.0895 496C90.9636 483.235 93.709 470.152 97.6698 458C108.474 424.853 129.718 396.331 158 376L158 374C121.352 358.742 91.1652 323.511 77 287C38.4447 297.835 2.40752 255.04 21.9012 219C28.1302 207.484 38.5766 198.977 51 195.029C55.3942 193.632 63.9556 194.605 67.4113 191.972C70.0783 189.94 70.373 184.031 71.3441 181C73.7534 173.481 77.1177 166.316 81.8997 160C87.9009 152.074 95.4583 145.504 104 140.454C107.824 138.193 114.077 137.296 117.146 134.157C120.219 131.014 120.903 124.068 122.424 120C126.492 109.121 130.929 98.3319 136.258 88C153.381 54.8042 180.065 19.7648 213 1L196 0L157 0.740723L0 0z"/>
<path style="fill:#8d6e6c; stroke:none;" d="M154 0L154 1L161 1L154 0M118 135C148.197 129.144 180.328 132 211 132L368 132C368 94.2461 365.623 50.1471 337.803 21.3248C318.351 1.17224 292.106 0 266 0C250.478 0 227.703 -4.24615 213 0.702942C201.037 4.72986 188.729 18.2842 180 27C152.899 54.0595 123.272 95.8825 118 135z"/>
<path style="fill:#27262f; stroke:none;" d="M293 0L293 1C338.811 2.99747 360.404 49.5544 365.718 89C367.525 102.414 365.221 118.073 368.419 131C372.033 145.611 384.452 157.672 388 173C416.571 173 454.223 166.146 478 185.468C510.049 211.511 503.734 270.612 460 281C469.242 303.648 459.713 321.371 447.797 341C425.14 378.323 392.521 414.554 354 436C361.16 462.177 370 484.202 370 512L512 512L512 0L293 0z"/>
<path style="fill:#8d6e6c; stroke:none;" d="M149 1L149 2L153 2L149 1M79 56L79 57C100.623 56.0572 104.774 39.6948 115.9 25C123.887 14.4512 135.212 6.49756 148 3C140.666 0.837128 129.298 9.5589 124.039 14.0841C107.414 28.3895 104.511 53.9163 79 56M25 96L26 96C38.584 76.9982 55.1421 62.7305 78 58C72.4026 56.3002 64.9951 60.3016 60 62.7562C45.8823 69.6934 30.7902 80.7237 25 96M24 97L23 100L24 100L24 97M22 101L19 110L20 110L22 101M18 111L17 117L18 117L18 111M16 118L14 135L15 135L16 118z"/>
<path style="fill:#c7856c; stroke:none;" d="M133 132L133 133L369 133L347 132L299 132L133 132M125.667 133.333L126.333 133.667L125.667 133.333z"/>
<path style="fill:#c7afaa; stroke:none;" d="M118 135C106.147 192.275 102.663 247.724 122.692 304C128.351 319.9 135.26 335.573 144.062 350C148.749 357.682 158.374 367.215 160 376C165.472 378.122 177.707 380.331 180.972 385.394C185.576 392.53 182 411.568 182 420L182 512L278 512L278 384C288.71 382.418 298.488 377.111 308 372.245C341.228 355.246 376.076 321.573 385 284L272 284C254.132 284 232.731 287.175 216 279.688C175.626 261.619 168.8 205.329 208 181.464C226.656 170.106 249.126 173 270 173L388 173C385.932 163.01 378.047 137.912 367.815 133.603C362.004 131.156 352.25 133 346 133L296 133C237.569 133 175.878 127.526 118 135z"/>
<path style="fill:#c7856c; stroke:none;" d="M120.667 134.333L121.333 134.667L120.667 134.333z"/>
<path style="fill:#8d6e6c; stroke:none;" d="M115 135L116 136L115 135z"/>
<path style="fill:#c7856c; stroke:none;" d="M77 287C85.159 315.541 108.652 341.926 132 359.116C140.383 365.288 150.556 373.138 161 375C152.995 360.636 142.522 347.901 135.259 333C117.053 295.645 107.079 253.577 107.079 212C107.079 185.466 114.505 160.93 118 135C100.413 139.177 84.2893 153.001 76.2701 169C73.1664 175.192 72.3449 187.817 67.436 192.397C63.8973 195.698 54.71 194.242 50 195.746C36.0826 200.19 22.9936 211.766 18.7215 226C8.56691 259.833 40.3231 300.736 77 287M370 135L371 136L370 135z"/>
<path style="fill:#8d6e6c; stroke:none;" d="M112 136L113 137L112 136M13 137L13 165L14 165L13 137M109.667 137.333L110.333 137.667L109.667 137.333M107.667 138.333L108.333 138.667L107.667 138.333z"/>
<path style="fill:#c7856c; stroke:none;" d="M372 138L373 139L372 138z"/>
<path style="fill:#8d6e6c; stroke:none;" d="M105 139L106 140L105 139M103.667 140.333L104.333 140.667L103.667 140.333z"/>
<path style="fill:#c7856c; stroke:none;" d="M373 140L374 141L373 140z"/>
<path style="fill:#8d6e6c; stroke:none;" d="M102 141L103 142L102 141M100 142L101 143L100 142M99 143L100 144L99 143M97 144L98 145L97 144M96 145L97 146L96 145M94 146L95 147L94 146M93 147L94 148L93 147M92 148L93 149L92 148M91 149L92 150L91 149M90 150L91 151L90 150M89 151L90 152L89 151M88 152L89 153L88 152M87 153L88 154L87 153z"/>
<path style="fill:#c7856c; stroke:none;" d="M380 153L381 154L380 153z"/>
<path style="fill:#8d6e6c; stroke:none;" d="M86 154L87 155L86 154M85 155L86 156L85 155M84 156L85 157L84 156M83 157L84 158L83 157z"/>
<path style="fill:#c7856c; stroke:none;" d="M382 157L383 158L382 157M383 159L384 160L383 159z"/>
<path style="fill:#8d6e6c; stroke:none;" d="M81 160L82 161L81 160M80 161L81 162L80 161M79 163L80 164L79 163M78 164L79 165L78 164M77 166L78 167L77 166M14 167L14 175L15 175L14 167M76 168L77 169L76 168M75 170L76 171L75 170z"/>
<path style="fill:#c7856c; stroke:none;" d="M387 170L388 171L387 170z"/>
<path style="fill:#8d6e6c; stroke:none;" d="M74 172L75 173L74 172z"/>
<path style="fill:#c7856c; stroke:none;" d="M230 173L230 174L237 174L230 173z"/>
<path style="fill:#8d6e6c; stroke:none;" d="M237 173L237 174L304 174L304 175C246.632 180.009 246.598 276.988 304 282L304 283L236 283C241.462 285.292 249.113 284 255 284L296 284C324.285 284 352.658 281.798 381 283.039C407.194 284.186 439.834 288.978 465 279.91C499.905 267.332 509.574 219.01 485.815 192.001C466.174 169.673 437.837 173 411 173L237 173z"/>
<path style="fill:#c7856c; stroke:none;" d="M316 173L316 174L388 174L365 173L316 173z"/>
<path style="fill:#8d6e6c; stroke:none;" d="M73.3333 174.667L73.6667 175.333L73.3333 174.667z"/>
<path style="fill:#c7856c; stroke:none;" d="M224.667 174.333L225.333 174.667L224.667 174.333z"/>
<path style="fill:#8d6e6c; stroke:none;" d="M226 174L226 175L230 175L226 174z"/>
<path style="fill:#27262f; stroke:none;" d="M304 283L304 282C247.069 273.592 247.107 183.402 304 175C296.6 171.895 285.007 174 277 174C253.49 174 225.173 169.443 205 184.159C175.736 205.507 174.542 250.327 204 272.239C229.661 291.327 273.789 283 304 283z"/>
<path style="fill:#c7856c; stroke:none;" d="M221 175L222 176L221 175z"/>
<path style="fill:#8d6e6c; stroke:none;" d="M222 175L222 176L225 176L222 175M15 176L15 182L16 182L15 176z"/>
<path style="fill:#c7856c; stroke:none;" d="M218 176L219 177L218 176z"/>
<path style="fill:#8d6e6c; stroke:none;" d="M219.667 176.333L220.333 176.667L219.667 176.333M72 177L73 178L72 177z"/>
<path style="fill:#c7856c; stroke:none;" d="M215 177L216 178L215 177z"/>
<path style="fill:#8d6e6c; stroke:none;" d="M216.667 177.333L217.333 177.667L216.667 177.333z"/>
<path style="fill:#c7856c; stroke:none;" d="M213 178L214 179L213 178z"/>
<path style="fill:#8d6e6c; stroke:none;" d="M214 178L215 179L214 178z"/>
<path style="fill:#c7856c; stroke:none;" d="M211 179L212 180L211 179z"/>
<path style="fill:#8d6e6c; stroke:none;" d="M212 179L213 180L212 179M71.3333 180.667L71.6667 181.333L71.3333 180.667z"/>
<path style="fill:#c7856c; stroke:none;" d="M209 180L210 181L209 180z"/>
<path style="fill:#8d6e6c; stroke:none;" d="M210 180L211 181L210 180z"/>
<path style="fill:#c7856c; stroke:none;" d="M207 181L206 183L207 181z"/>
<path style="fill:#8d6e6c; stroke:none;" d="M208 181L209 182L208 181M207 182L208 183L207 182M16 183L16 188L17 188L16 183M70.3333 183.667L70.6667 184.333L70.3333 183.667z"/>
<path style="fill:#c7856c; stroke:none;" d="M204 183L203 185L204 183z"/>
<path style="fill:#8d6e6c; stroke:none;" d="M205 183L206 184L205 183M204 184L205 185L204 184M202.667 185.333L203.333 185.667L202.667 185.333z"/>
<path style="fill:#c7856c; stroke:none;" d="M200 186L194 193L200 186z"/>
<path style="fill:#8d6e6c; stroke:none;" d="M201 186L202 187L201 186M69.3333 187.667L69.6667 188.333L69.3333 187.667M200 187L201 188L200 187M199 188L200 189L199 188M17 189L19 203L20 203L17 189M198 189L199 190L198 189M197 190L198 191L197 190M196 191L197 192L196 191M68 192L69 193L68 192M195 192L196 193L195 192M56 193L56 194L68 194L56 193M194 193L195 194L194 193M52 194L52 195L55 195L52 194M193 194L191 198L193 194M49.6667 195.333L50.3333 195.667L49.6667 195.333z"/>
<path style="fill:#c7856c; stroke:none;" d="M192 195L193 196L192 195z"/>
<path style="fill:#8d6e6c; stroke:none;" d="M46.6667 196.333L47.3333 196.667L46.6667 196.333z"/>
<path style="fill:#c7856c; stroke:none;" d="M191 196L192 197L191 196z"/>
<path style="fill:#8d6e6c; stroke:none;" d="M44.6667 197.333L45.3333 197.667L44.6667 197.333M42 198L43 199L42 198z"/>
<path style="fill:#c7856c; stroke:none;" d="M190 198L189 200L190 198z"/>
<path style="fill:#8d6e6c; stroke:none;" d="M40 199L41 200L40 199M190 199L191 200L190 199M38.6667 200.333L39.3333 200.667L38.6667 200.333M189 200L190 201L189 200M37 201L38 202L37 201z"/>
<path style="fill:#c7856c; stroke:none;" d="M188 201L189 202L188 201z"/>
<path style="fill:#8d6e6c; stroke:none;" d="M35.6667 202.333L36.3333 202.667L35.6667 202.333M188 202L189 203L188 202M34 203L35 204L34 203z"/>
<path style="fill:#c7856c; stroke:none;" d="M187 203L188 204L187 203z"/>
<path style="fill:#8d6e6c; stroke:none;" d="M20 204L22 216L23 216L20 204M33 204L34 205L33 204M187 204L188 205L187 204M32 205L33 206L32 205z"/>
<path style="fill:#c7856c; stroke:none;" d="M186 205L187 206L186 205z"/>
<path style="fill:#8d6e6c; stroke:none;" d="M31 206L32 207L31 206M186 206L187 207L186 206M30 207L31 208L30 207z"/>
<path style="fill:#c7856c; stroke:none;" d="M185 207L186 208L185 207z"/>
<path style="fill:#8d6e6c; stroke:none;" d="M29 208L30 209L29 208M185.333 208.667L185.667 209.333L185.333 208.667M28 209L29 210L28 209M27 210L28 211L27 210z"/>
<path style="fill:#c7856c; stroke:none;" d="M184 210L185 211L184 210z"/>
<path style="fill:#5abad6; stroke:none;" d="M310 210.533C293.258 214.602 292.288 239.698 308 245.852C317.272 249.483 331.144 247 341 247L415 247C425.751 247 442.225 250.072 451.999 245.16C466.857 237.695 464.729 214.035 448 210.39C439.011 208.432 428.187 210 419 210L361 210C345.169 210 325.384 206.794 310 210.533z"/>
<path style="fill:#8d6e6c; stroke:none;" d="M26.3333 211.667L26.6667 212.333L26.3333 211.667M184.333 211.667L184.667 212.333L184.333 211.667M25 213L26 214L25 213z"/>
<path style="fill:#c7856c; stroke:none;" d="M183 213L184 214L183 213z"/>
<path style="fill:#8d6e6c; stroke:none;" d="M24.3333 214.667L24.6667 215.333L24.3333 214.667M183 214L183 217L184 217L183 214M23 216L24 217L23 216z"/>
<path style="fill:#c7856c; stroke:none;" d="M182.333 217.667L182.667 218.333L182.333 217.667z"/>
<path style="fill:#8d6e6c; stroke:none;" d="M182 219L182 223L183 223L182 219z"/>
<path style="fill:#c7856c; stroke:none;" d="M181 223L181 234L182 234L181 223z"/>
<path style="fill:#8d6e6c; stroke:none;" d="M182 234L182 239L183 239L182 234z"/>
<path style="fill:#c7856c; stroke:none;" d="M182.333 239.667L182.667 240.333L182.333 239.667z"/>
<path style="fill:#8d6e6c; stroke:none;" d="M183 240L183 243L184 243L183 240z"/>
<path style="fill:#c7afaa; stroke:none;" d="M16 242L17 243L16 242z"/>
<path style="fill:#c7856c; stroke:none;" d="M183 243L184 244L183 243z"/>
<path style="fill:#8d6e6c; stroke:none;" d="M184.333 244.667L184.667 245.333L184.333 244.667z"/>
<path style="fill:#c7856c; stroke:none;" d="M184 246L185 247L184 246z"/>
<path style="fill:#8d6e6c; stroke:none;" d="M185.333 247.667L185.667 248.333L185.333 247.667z"/>
<path style="fill:#c7856c; stroke:none;" d="M185 249L186 250L185 249z"/>
<path style="fill:#8d6e6c; stroke:none;" d="M186 250L187 251L186 250z"/>
<path style="fill:#c7856c; stroke:none;" d="M186 251L187 252L186 251z"/>
<path style="fill:#8d6e6c; stroke:none;" d="M187 252L188 253L187 252z"/>
<path style="fill:#c7856c; stroke:none;" d="M187 253L188 254L187 253z"/>
<path style="fill:#8d6e6c; stroke:none;" d="M188 254L189 255L188 254z"/>
<path style="fill:#c7856c; stroke:none;" d="M188 255L189 256L188 255z"/>
<path style="fill:#8d6e6c; stroke:none;" d="M189 256L190 259L191 259L189 256z"/>
<path style="fill:#c7856c; stroke:none;" d="M189 257L190 258L189 257z"/>
<path style="fill:#8d6e6c; stroke:none;" d="M191 259L193 261L191 259z"/>
<path style="fill:#c7afaa; stroke:none;" d="M20 260L21 261L20 260z"/>
<path style="fill:#c7856c; stroke:none;" d="M191 260L192 261L191 260M192 261L193 262L192 261z"/>
<path style="fill:#c7afaa; stroke:none;" d="M21 262L22 263L21 262z"/>
<path style="fill:#8d6e6c; stroke:none;" d="M193 262L194 263L193 262M194 263L202 271L194 263z"/>
<path style="fill:#c7856c; stroke:none;" d="M194 264L195 265L194 264M195 265L196 266L195 265M196 266L197 267L196 266M197 267L198 268L197 267M198 268L199 269L198 268M199 269L200 270L199 269M200 270L201 271L200 270z"/>
<path style="fill:#8d6e6c; stroke:none;" d="M202 271L203 272L202 271z"/>
<path style="fill:#c7856c; stroke:none;" d="M203 272L205 274L203 272z"/>
<path style="fill:#8d6e6c; stroke:none;" d="M204 272L205 273L204 272M205 273L206 274L205 273M206 274L206 275L209 276L206 274z"/>
<path style="fill:#c7856c; stroke:none;" d="M207 275L208 276L207 275M209 276L210 277L209 276z"/>
<path style="fill:#8d6e6c; stroke:none;" d="M210 276L211 277L210 276z"/>
<path style="fill:#c7856c; stroke:none;" d="M211 277L212 278L211 277z"/>
<path style="fill:#8d6e6c; stroke:none;" d="M212 277L213 278L212 277z"/>
<path style="fill:#c7856c; stroke:none;" d="M213 278L214 279L213 278z"/>
<path style="fill:#8d6e6c; stroke:none;" d="M214 278L215 279L214 278z"/>
<path style="fill:#c7856c; stroke:none;" d="M215 279L216 280L215 279z"/>
<path style="fill:#8d6e6c; stroke:none;" d="M216.667 279.333L217.333 279.667L216.667 279.333z"/>
<path style="fill:#c7856c; stroke:none;" d="M217.667 280.333L218.333 280.667L217.667 280.333z"/>
<path style="fill:#8d6e6c; stroke:none;" d="M219.667 280.333L220.333 280.667L219.667 280.333z"/>
<path style="fill:#c7afaa; stroke:none;" d="M38 281L39 282L38 281z"/>
<path style="fill:#c7856c; stroke:none;" d="M220.667 281.333L221.333 281.667L220.667 281.333z"/>
<path style="fill:#8d6e6c; stroke:none;" d="M222 281L222 282L225 282L222 281z"/>
<path style="fill:#c7856c; stroke:none;" d="M316 283L316 284L385 284L374 309L442 351C455.443 331.056 472.781 305.255 460 281C436.353 287.645 407.259 284.751 383 283.09C360.881 281.575 338.175 283 316 283M224.667 282.333L225.333 282.667L224.667 282.333z"/>
<path style="fill:#8d6e6c; stroke:none;" d="M226 282L226 283L230 283L226 282z"/>
<path style="fill:#c7856c; stroke:none;" d="M230 283L230 284L236 284L230 283z"/>
<path style="fill:#c7afaa; stroke:none;" d="M462 286L463 287L462 286M52 287L53 288L52 287M79 293L80 294L79 293M82 299L83 300L82 299M85 305L86 306L85 305z"/>
<path style="fill:#c7856c; stroke:none;" d="M225 308L226 309L225 308z"/>
<path style="fill:#8d6e6c; stroke:none;" d="M226.667 308.333L227.333 308.667L226.667 308.333z"/>
<path style="fill:#27262f; stroke:none;" d="M228.004 308.902C218.981 309.875 221.513 319.517 226.055 323.815C233.41 330.775 244.166 333.276 254 331.995C261.522 331.015 268.796 327.796 273.852 321.985C277.122 318.226 278.282 312.201 272.891 309.613C265.073 305.858 256.771 318.258 248 317.609C240.5 317.053 235.162 308.13 228.004 308.902z"/>
<path style="fill:#8d6e6c; stroke:none;" d="M229.667 308.333L230.333 308.667L229.667 308.333z"/>
<path style="fill:#c7856c; stroke:none;" d="M231 308L232 309L231 308M266 308L267 309L266 308z"/>
<path style="fill:#8d6e6c; stroke:none;" d="M267.667 308.333L268.333 308.667L267.667 308.333M270.667 308.333L271.333 308.667L270.667 308.333z"/>
<path style="fill:#c7856c; stroke:none;" d="M272 308L273 309L272 308M223 309L222 311L223 309z"/>
<path style="fill:#8d6e6c; stroke:none;" d="M224 309L225 310L224 309M232 309L233 310L232 309z"/>
<path style="fill:#c7856c; stroke:none;" d="M233 309L234 310L233 309M264 309L261 313L264 309z"/>
<path style="fill:#8d6e6c; stroke:none;" d="M265 309L266 310L265 309M273 309L274 310L273 309z"/>
<path style="fill:#c7856c; stroke:none;" d="M274 309L275 310L274 309z"/>
<path style="fill:#5abad6; stroke:none;" d="M374 309C351.328 342.608 318.944 374.528 278 384L278 512L370 512C370 484.603 362.714 461.6 354 436C363.06 432.566 371.37 425.23 379 419.349C404.2 399.923 421.673 375.85 442 352L419 336.319L374 309z"/>
<path style="fill:#8d6e6c; stroke:none;" d="M223 310L224 311L223 310z"/>
<path style="fill:#c7856c; stroke:none;" d="M234 310L235 311L234 310z"/>
<path style="fill:#8d6e6c; stroke:none;" d="M264 310L265 311L264 310z"/>
<path style="fill:#c7856c; stroke:none;" d="M275 310L276 311L275 310z"/>
<path style="fill:#8d6e6c; stroke:none;" d="M222 311L223 312L222 311z"/>
<path style="fill:#c7856c; stroke:none;" d="M235 311L236 312L235 311z"/>
<path style="fill:#8d6e6c; stroke:none;" d="M263 311L264 312L263 311z"/>
<path style="fill:#c7856c; stroke:none;" d="M276 311L277 312L276 311z"/>
<path style="fill:#c7afaa; stroke:none;" d="M89 312L90 313L89 312z"/>
<path style="fill:#c7856c; stroke:none;" d="M221 312L222 313L221 312M236 312L237 313L236 312z"/>
<path style="fill:#8d6e6c; stroke:none;" d="M262 312L263 313L262 312M276 312L277 313L276 312z"/>
<path style="fill:#c7afaa; stroke:none;" d="M380 312L381 313L380 312z"/>
<path style="fill:#8d6e6c; stroke:none;" d="M221 313L222 314L221 313M237 313L238 314L237 313z"/>
<path style="fill:#c7856c; stroke:none;" d="M260 313L261 314L260 313M277 313L277 318L278 318L277 313z"/>
<path style="fill:#8d6e6c; stroke:none;" d="M238 314L239 315L238 314z"/>
<path style="fill:#c7856c; stroke:none;" d="M239 314L240 315L239 314M258 314L259 315L258 314z"/>
<path style="fill:#8d6e6c; stroke:none;" d="M259 314L260 315L259 314z"/>
<path style="fill:#c7856c; stroke:none;" d="M220.333 315.667L220.667 316.333L220.333 315.667z"/>
<path style="fill:#8d6e6c; stroke:none;" d="M240 315L241 316L240 315z"/>
<path style="fill:#c7856c; stroke:none;" d="M241 315L242 316L241 315M256 315L257 316L256 315z"/>
<path style="fill:#8d6e6c; stroke:none;" d="M257 315L258 316L257 315M242.667 316.333L243.333 316.667L242.667 316.333z"/>
<path style="fill:#c7856c; stroke:none;" d="M244 316L245 317L244 316M253.667 316.333L254.333 316.667L253.667 316.333z"/>
<path style="fill:#8d6e6c; stroke:none;" d="M255 316L256 317L255 316M221.333 317.667L221.667 318.333L221.333 317.667M246 317L246 318L252 318L246 317z"/>
<path style="fill:#c7afaa; stroke:none;" d="M388 317L389 318L388 317z"/>
<path style="fill:#c7856c; stroke:none;" d="M221 319L222 320L221 319z"/>
<path style="fill:#8d6e6c; stroke:none;" d="M276 319L277 320L276 319M222 320L223 321L222 320M275 320L271 325L275 320M223 321L224 322L223 321z"/>
<path style="fill:#c7856c; stroke:none;" d="M275 321L276 322L275 321z"/>
<path style="fill:#8d6e6c; stroke:none;" d="M224 322L225 323L224 322z"/>
<path style="fill:#c7856c; stroke:none;" d="M274 322L275 323L274 322z"/>
<path style="fill:#c7afaa; stroke:none;" d="M396 322L397 323L396 322z"/>
<path style="fill:#8d6e6c; stroke:none;" d="M225 323L226 324L225 323z"/>
<path style="fill:#c7856c; stroke:none;" d="M273 323L274 324L273 323z"/>
<path style="fill:#8d6e6c; stroke:none;" d="M226 324L227 325L226 324z"/>
<path style="fill:#c7856c; stroke:none;" d="M272 324L273 325L272 324M227 325L228 326L227 325z"/>
<path style="fill:#8d6e6c; stroke:none;" d="M270 325L271 326L270 325z"/>
<path style="fill:#c7856c; stroke:none;" d="M228 326L229 327L228 326z"/>
<path style="fill:#8d6e6c; stroke:none;" d="M229 326L230 327L229 326z"/>
<path style="fill:#c7856c; stroke:none;" d="M269 326L270 327L269 326z"/>
<path style="fill:#8d6e6c; stroke:none;" d="M230 327L231 328L230 327M267 327L268 328L267 327z"/>
<path style="fill:#c7856c; stroke:none;" d="M268 327L269 328L268 327z"/>
<path style="fill:#c7afaa; stroke:none;" d="M404 327L405 328L404 327z"/>
<path style="fill:#c7856c; stroke:none;" d="M231 328L232 329L231 328z"/>
<path style="fill:#8d6e6c; stroke:none;" d="M232 328L233 329L232 328M265 328L266 329L265 328z"/>
<path style="fill:#c7856c; stroke:none;" d="M266 328L267 329L266 328z"/>
<path style="fill:#c7afaa; stroke:none;" d="M101 329L102 330L101 329z"/>
<path style="fill:#c7856c; stroke:none;" d="M233 329L234 330L233 329z"/>
<path style="fill:#8d6e6c; stroke:none;" d="M234 329L235 330L234 329M263 329L264 330L263 329z"/>
<path style="fill:#c7856c; stroke:none;" d="M264 329L265 330L264 329z"/>
<path style="fill:#c7afaa; stroke:none;" d="M102 330L103 331L102 330z"/>
<path style="fill:#c7856c; stroke:none;" d="M235 330L236 331L235 330z"/>
<path style="fill:#8d6e6c; stroke:none;" d="M236.667 330.333L237.333 330.667L236.667 330.333M261 330L262 331L261 330z"/>
<path style="fill:#c7856c; stroke:none;" d="M262 330L263 331L262 330M238 331L239 332L238 331z"/>
<path style="fill:#8d6e6c; stroke:none;" d="M239.667 331.333L240.333 331.667L239.667 331.333M257.667 331.333L258.333 331.667L257.667 331.333z"/>
<path style="fill:#c7856c; stroke:none;" d="M259.667 331.333L260.333 331.667L259.667 331.333M241.667 332.333L242.333 332.667L241.667 332.333z"/>
<path style="fill:#8d6e6c; stroke:none;" d="M243 332L243 333L248 333L243 332M250 332L250 333L255 333L250 332z"/>
<path style="fill:#c7856c; stroke:none;" d="M255.667 332.333L256.333 332.667L255.667 332.333z"/>
<path style="fill:#c7afaa; stroke:none;" d="M412 332L413 333L412 332M452 333L453 334L452 333M106 335L107 336L106 335M420 337L421 338L420 337M428 342L429 343L428 342M436 347L437 348L436 347M120 349L121 350L120 349M131 358L132 359L131 358M146 368L147 369L146 368z"/>
<path style="fill:#8d6e6c; stroke:none;" d="M158 375L159 376L158 375z"/>
<path style="fill:#5abad6; stroke:none;" d="M90 512L182 512L182 417C182 410.015 185.509 389.025 180.397 383.995C178.071 381.706 173.968 381.036 171 379.947C167.45 378.644 162.879 375.623 159 376.092C149.216 377.273 137.486 392.178 131.3 398.91C102.764 429.965 90 470.45 90 512z"/>
<path style="fill:#c7afaa; stroke:none;" d="M155 377L156 378L155 377M145 385L146 386L145 385z"/>
<path style="fill:#8d6e6c; stroke:none;" d="M407 393L408 394L407 393M406 394L407 395L406 394M404 396L405 397L404 396M403 397L404 398L403 397z"/>
<path style="fill:#c7afaa; stroke:none;" d="M129 401L130 402L129 401M124 407L125 408L124 407z"/>
<path style="fill:#8d6e6c; stroke:none;" d="M390 409L391 410L390 409z"/>
<path style="fill:#c7afaa; stroke:none;" d="M116 418L117 419L116 418M114 421L115 422L114 421z"/>
<path style="fill:#8d6e6c; stroke:none;" d="M367 427L368 428L367 427z"/>
<path style="fill:#c7afaa; stroke:none;" d="M109 430L110 431L109 430z"/>
<path style="fill:#8d6e6c; stroke:none;" d="M355 440L356 441L355 440M102 444L103 445L102 444z"/>
<path style="fill:#c7afaa; stroke:none;" d="M358 447L359 448L358 447M100 449L101 450L100 449M359 450L360 451L359 450M99 452L100 453L99 452M362 459L363 460L362 459M96 461L97 462L96 461M363 462L364 463L363 462M364 466L365 467L364 466M94 469L95 470L94 469M366 474L367 475L366 474M92 478L93 479L92 478M367 480L368 481L367 480M90 492L91 493L90 492M369 497L370 498L369 497M89 511L90 512L89 511z"/>
</svg>
